<?xml version="1.0" encoding="UTF-8" standalone="no"?>
<svg
   xmlns:dc="http://purl.org/dc/elements/1.1/"
   xmlns:cc="http://creativecommons.org/ns#"
   xmlns:rdf="http://www.w3.org/1999/02/22-rdf-syntax-ns#"
   xmlns:svg="http://www.w3.org/2000/svg"
   xmlns="http://www.w3.org/2000/svg"
   xmlns:sodipodi="http://sodipodi.sourceforge.net/DTD/sodipodi-0.dtd"
   xmlns:inkscape="http://www.inkscape.org/namespaces/inkscape"
   version="1.0"
   width="489.36566"
   height="228.33813"
   id="svg2985"
   inkscape:version="0.48.4 r9939"
   sodipodi:docname="Logo.emf">
  <metadata
     id="metadata3021">
    <rdf:RDF>
      <cc:Work
         rdf:about="">
        <dc:format>image/svg+xml</dc:format>
        <dc:type
           rdf:resource="http://purl.org/dc/dcmitype/StillImage" />
        <dc:title></dc:title>
      </cc:Work>
    </rdf:RDF>
  </metadata>
  <sodipodi:namedview
     pagecolor="#ffffff"
     bordercolor="#666666"
     borderopacity="1"
     objecttolerance="10"
     gridtolerance="10"
     guidetolerance="10"
     inkscape:pageopacity="0"
     inkscape:pageshadow="2"
     inkscape:window-width="1920"
     inkscape:window-height="1018"
     id="namedview3019"
     showgrid="false"
     fit-margin-top="0"
     fit-margin-left="0"
     fit-margin-right="0"
     fit-margin-bottom="0"
     inkscape:zoom="0.91355041"
     inkscape:cx="170.37091"
     inkscape:cy="288.37749"
     inkscape:window-x="-8"
     inkscape:window-y="-8"
     inkscape:window-maximized="1"
     inkscape:current-layer="svg2985" />
  <defs
     id="defs2987" />
  <g
     id="g2989"
     transform="translate(-136.36522,-224.51218)">
    <path
       style="fill:#f8af38;fill-opacity:1;fill-rule:evenodd;stroke:none"
       d="m 276.1813,406.60129 0,0 c 41.44783,0 75.09371,-33.58961 75.09371,-75.20623 0,-41.39156 -33.64588,-74.99994 -75.09371,-74.99994 -41.46658,0 -75.11246,33.60838 -75.11246,74.99994 0,41.61662 33.64588,75.20623 75.11246,75.20623 z"
       id="path2991"
       inkscape:connector-curvature="0" />
    <path
       style="fill:#fefefe;fill-opacity:1;fill-rule:evenodd;stroke:none"
       d="m 290.79119,354.23825 0,0 0,-46.30529 c 0,-13.09076 -6.26406,-18.36082 -16.63539,-18.36082 -6.65791,0 -12.73442,2.92573 -18.79218,9.18979 -4.70743,-7.42685 -9.60239,-9.18979 -15.26631,-9.18979 -5.87021,0 -11.74042,2.73818 -16.63539,7.8207 -0.2063,-3.31958 -0.994,-6.05776 -2.36309,-8.00825 l -12.52812,3.50713 c 1.57539,3.31957 2.36309,8.00824 2.36309,16.01649 l 0,45.33004 13.29706,0 0,-46.88668 c 4.70742,-4.29482 9.20855,-6.24531 13.12827,-6.24531 5.27007,0 6.84546,2.34434 6.84546,9.77119 l 0,43.3608 13.10951,0 0,-46.09898 c 4.31358,-4.10728 8.8147,-7.23931 13.31582,-7.23931 4.89497,0 6.65791,2.15679 6.65791,9.58364 l 0,43.75465 13.50336,0 z"
       id="path2993"
       inkscape:connector-curvature="0" />
    <path
       style="fill:#fefefe;fill-opacity:1;fill-rule:evenodd;stroke:none"
       d="m 356.43255,290.90372 0,0 -14.89121,0 -10.59639,34.22728 c -2.34434,7.63315 -4.50112,16.63539 -4.70743,17.21679 -0.18754,-0.97525 -2.55063,-10.55888 -3.52587,-14.27231 l -11.55288,-38.54085 -14.12227,2.34433 14.51612,42.64813 c 1.76293,5.68266 4.29482,12.52812 5.87021,19.74867 l 4.50112,0 c -3.71343,12.13427 -8.6084,15.66015 -17.23554,18.00448 l 4.50112,9.00225 c 14.89121,-2.73819 19.41108,-10.37134 24.6999,-25.63764 l 22.54312,-64.74113 z"
       id="path2995"
       inkscape:connector-curvature="0" />
    <path
       style="fill:#4c5058;fill-opacity:1;fill-rule:evenodd;stroke:none"
       d="m 421.13617,267.64793 0,0 -59.86492,0 0,12.13427 21.90546,0 0,74.45605 14.29106,0 0,-74.45605 21.71791,0 1.95049,-12.13427 z"
       id="path2997"
       inkscape:connector-curvature="0" />
    <path
       style="fill:#4c5058;fill-opacity:1;fill-rule:evenodd;stroke:none"
       d="m 479.27565,354.23825 0,0 0,-44.74865 c 0,-6.26406 -0.60015,-9.18979 -2.15679,-12.32182 -2.15679,-4.10727 -7.83945,-7.61439 -15.4726,-7.61439 -6.65791,0 -13.10952,2.53188 -19.37358,8.19579 0,0 0.37509,-3.11328 0.37509,-7.22055 l 0,-13.48461 c 0,-6.05776 -0.37509,-11.14028 -1.36909,-14.8537 l -13.89721,3.13203 c 0.7877,3.11327 1.36909,8.00824 1.36909,13.67215 l 0,75.24375 13.89721,0 0,-45.3488 c 4.51988,-4.68867 10.39009,-7.80194 15.28506,-7.80194 5.08252,0 8.027,2.13803 8.027,10.14628 l 0,43.00446 13.31582,0 z"
       id="path2999"
       inkscape:connector-curvature="0" />
    <path
       style="fill:#4c5058;fill-opacity:1;fill-rule:evenodd;stroke:none"
       d="m 560.07078,311.1025 0,0 c 0,-25.20628 -10.55888,-44.54234 -32.48309,-44.54234 -19.57988,0 -32.6894,16.01649 -32.6894,44.3548 0,25.58137 10.97148,44.72989 33.08324,44.72989 20.34882,0 32.08925,-17.57313 32.08925,-44.54235 z m -14.87246,0.97525 0,0 c 0,23.04949 -5.87021,32.63313 -17.42309,32.63313 -13.29706,0 -18.39833,-12.30307 -18.39833,-34.58362 0,-20.70516 4.89497,-32.42683 18.00448,-32.42683 13.89722,0 17.81694,13.27831 17.81694,34.37732 z"
       id="path3001"
       inkscape:connector-curvature="0" />
    <path
       style="fill:#4c5058;fill-opacity:1;fill-rule:evenodd;stroke:none"
       d="m 625.73089,328.05673 0,0 c 0,-12.90322 -7.83946,-20.93022 -19.16728,-24.64364 l -9.18979,-2.92573 c -7.65191,-2.55064 -10.39009,-5.28882 -10.39009,-10.76518 0,-7.05176 5.10127,-11.74043 12.71567,-11.74043 6.26406,0 11.14028,1.95049 18.37958,6.63916 l 5.88897,-10.16504 c -6.86421,-5.2513 -15.86646,-8.21454 -24.64364,-8.21454 -15.67891,0 -26.40658,10.39009 -26.40658,25.61888 0,5.10127 0.97524,9.18979 3.11327,12.71567 2.92573,4.91372 8.027,8.027 15.07876,10.35258 l 8.40209,2.55063 c 8.027,2.55064 11.55288,6.63916 11.55288,12.90322 0,8.62715 -5.70142,13.69091 -15.2663,13.69091 -7.83945,0 -14.10352,-2.55064 -20.93022,-7.01425 l -5.10127,10.91522 c 7.65191,5.10127 16.61664,7.83945 25.61889,7.83945 19.95497,0 30.34506,-13.50336 30.34506,-27.75691 z"
       id="path3003"
       inkscape:connector-curvature="0" />
    <path
       style="fill:#4c5058;fill-opacity:1;fill-rule:evenodd;stroke:none"
       d="m 225.69373,418.473 0,0 c 13.48461,0 24.60613,-11.15903 24.60613,-24.6999 0,-13.70967 -11.12152,-24.68115 -24.60613,-24.68115 -13.67216,0 -24.62489,10.97148 -24.62489,24.68115 0,13.54087 10.95273,24.6999 24.62489,24.6999 z"
       id="path3005"
       inkscape:connector-curvature="0" />
    <path
       style="fill:#f8af38;fill-opacity:1;fill-rule:evenodd;stroke:none"
       d="m 271.30509,263.74696 0,0 c 10.97148,0 19.78618,-8.78657 19.78618,-19.51424 0,-10.93397 -8.8147,-19.72054 -19.78618,-19.72054 -10.77456,0 -19.59863,8.78657 -19.59863,19.72054 0,10.72767 8.82407,19.51424 19.59863,19.51424 z"
       id="path3007"
       inkscape:connector-curvature="0" />
    <path
       style="fill:#f8af38;fill-opacity:1;fill-rule:evenodd;stroke:none"
       d="m 194.33591,326.10624 0,0 c 7.65191,0 13.93473,-6.2453 13.93473,-13.84095 0,-7.61439 -6.28282,-13.67215 -13.93473,-13.67215 -7.6519,0 -13.72842,6.05776 -13.72842,13.67215 0,7.59565 6.07652,13.84095 13.72842,13.84095 z"
       id="path3009"
       inkscape:connector-curvature="0" />
    <path
       style="fill:#4c5058;fill-opacity:1;fill-rule:evenodd;stroke:none"
       d="m 271.30509,452.85032 0,0 c 10.97148,0 19.78618,-8.79594 19.78618,-19.76743 0,-10.95273 -8.8147,-19.76742 -19.78618,-19.76742 -10.76518,0 -19.59863,8.81469 -19.59863,19.76742 0,10.97149 8.83345,19.76743 19.59863,19.76743 z"
       id="path3011"
       inkscape:connector-curvature="0" />
    <path
       style="fill:#4c5058;fill-opacity:1;fill-rule:evenodd;stroke:none"
       d="m 150.1124,424.8871 0,0 c 7.6519,0 13.91596,-6.26406 13.91596,-13.91597 0,-7.63315 -6.26406,-13.91596 -13.91596,-13.91596 -7.65191,0 -13.74718,6.28281 -13.74718,13.91596 0,7.65191 6.09527,13.91597 13.74718,13.91597 z"
       id="path3013"
       inkscape:connector-curvature="0" />
    <path
       style="fill:#4c5058;fill-opacity:1;fill-rule:evenodd;stroke:none"
       d="m 214.73162,270.15168 0,0 c 7.60502,0 13.85033,-6.24531 13.85033,-13.85033 0,-7.60502 -6.24531,-13.6534 -13.85033,-13.6534 -7.6144,0 -13.66278,6.04838 -13.66278,13.6534 0,7.60502 6.04838,13.85033 13.66278,13.85033 z"
       id="path3015"
       inkscape:connector-curvature="0" />
    <path
       style="fill:#f8af38;fill-opacity:1;fill-rule:evenodd;stroke:none"
       d="m 174.53098,375.65609 0,0 c 5.47636,0 9.97749,-4.53864 9.97749,-10.24006 0,-5.51387 -4.50113,-10.24005 -9.97749,-10.24005 -5.68267,0 -10.18379,4.72618 -10.18379,10.24005 0,5.70142 4.50112,10.24006 10.18379,10.24006 z"
       id="path3017"
       inkscape:connector-curvature="0" />
  </g>
</svg>
