<?xml version="1.0" encoding="UTF-8" standalone="no"?>
<!-- Created with Inkscape (http://www.inkscape.org/) -->

<svg
   xmlns:dc="http://purl.org/dc/elements/1.1/"
   xmlns:cc="http://creativecommons.org/ns#"
   xmlns:rdf="http://www.w3.org/1999/02/22-rdf-syntax-ns#"
   xmlns:svg="http://www.w3.org/2000/svg"
   xmlns="http://www.w3.org/2000/svg"
   xmlns:sodipodi="http://sodipodi.sourceforge.net/DTD/sodipodi-0.dtd"
   xmlns:inkscape="http://www.inkscape.org/namespaces/inkscape"
   width="153.48219"
   height="45.535717"
   id="svg2"
   version="1.1"
   inkscape:version="0.48.4 r9939"
   sodipodi:docname="Neues Dokument 1">
  <defs
     id="defs4">
    <marker
       inkscape:stockid="Arrow1Lend"
       orient="auto"
       refY="0"
       refX="0"
       id="Arrow1Lend"
       style="overflow:visible">
      <path
         id="path4009"
         d="M 0,0 5,-5 -12.5,0 5,5 0,0 z"
         style="fill-rule:evenodd;stroke:#000000;stroke-width:1pt"
         transform="matrix(-0.8,0,0,-0.8,-10,0)"
         inkscape:connector-curvature="0" />
    </marker>
    <marker
       inkscape:stockid="Arrow1Lend"
       orient="auto"
       refY="0"
       refX="0"
       id="Arrow1Lend-1"
       style="overflow:visible">
      <path
         inkscape:connector-curvature="0"
         id="path4009-0"
         d="M 0,0 5,-5 -12.5,0 5,5 0,0 z"
         style="fill-rule:evenodd;stroke:#000000;stroke-width:1pt"
         transform="matrix(-0.8,0,0,-0.8,-10,0)" />
    </marker>
  </defs>
  <sodipodi:namedview
     id="base"
     pagecolor="#ffffff"
     bordercolor="#666666"
     borderopacity="1.0"
     inkscape:pageopacity="0.0"
     inkscape:pageshadow="2"
     inkscape:zoom="5.6"
     inkscape:cx="33.481528"
     inkscape:cy="38.716735"
     inkscape:document-units="px"
     inkscape:current-layer="layer1"
     showgrid="false"
     fit-margin-top="0"
     fit-margin-left="0"
     fit-margin-right="0"
     fit-margin-bottom="0"
     inkscape:window-width="1920"
     inkscape:window-height="1017"
     inkscape:window-x="0"
     inkscape:window-y="27"
     inkscape:window-maximized="1" />
  <metadata
     id="metadata7">
    <rdf:RDF>
      <cc:Work
         rdf:about="">
        <dc:format>image/svg+xml</dc:format>
        <dc:type
           rdf:resource="http://purl.org/dc/dcmitype/StillImage" />
        <dc:title></dc:title>
      </cc:Work>
    </rdf:RDF>
  </metadata>
  <g
     inkscape:label="Ebene 1"
     inkscape:groupmode="layer"
     id="layer1"
     transform="translate(-222.30948,-188.81483)">
    <rect
       style="fill:#cccccc;fill-opacity:1;stroke:none"
       id="rect2985-8"
       width="45.535717"
       height="45.535717"
       x="330.25595"
       y="188.81483"
       rx="3.9719627"
       ry="3.9719627" />
    <path
       style="font-size:medium;font-style:normal;font-variant:normal;font-weight:normal;font-stretch:normal;text-indent:0;text-align:start;text-decoration:none;line-height:normal;letter-spacing:normal;word-spacing:normal;text-transform:none;direction:ltr;block-progression:tb;writing-mode:lr-tb;text-anchor:start;baseline-shift:baseline;color:#000000;fill:#666666;fill-opacity:1;stroke:none;stroke-width:1;marker:none;visibility:visible;display:inline;overflow:visible;enable-background:accumulate;font-family:Sans;-inkscape-font-specification:Sans"
       d="m 334.729,188.81991 c -0.9538,0 -4.47753,-0.12293 -4.47753,4.37424 l 0,36.79876 c 0,2.67639 1.38785,4.37425 4.47753,4.37425 l 0.0939,0 0,-0.97886 -0.0939,0 c -1.93592,0 -3.47557,-1.50414 -3.47557,-3.39539 l 0,-36.79876 c 0,-1.89126 1.53965,-3.39539 3.47557,-3.39539 l 0.0939,0 0,-0.97885 z"
       id="rect2985-8-4"
       inkscape:connector-curvature="0"
       sodipodi:nodetypes="ssssccssssccs" />
    <rect
       style="fill:#666666;fill-opacity:1;stroke:#666666"
       id="rect3007-1"
       width="7.6785712"
       height="7.6785712"
       x="364.27383"
       y="192.34166"
       rx="1"
       ry="1" />
    <rect
       style="fill:#666666;fill-opacity:1;stroke:#666666"
       id="rect3007-0-4"
       width="7.6785712"
       height="7.6785712"
       x="364.27383"
       y="202.60948"
       rx="1"
       ry="1" />
    <rect
       style="fill:#666666;stroke:#666666"
       id="rect3007-2-7"
       width="7.6785712"
       height="7.6785712"
       x="364.27383"
       y="212.87737"
       rx="1"
       ry="1" />
    <rect
       style="fill:#666666;fill-opacity:1;stroke:#666666"
       id="rect3007-0-9-6"
       width="7.6785712"
       height="7.6785712"
       x="364.27383"
       y="223.14516"
       rx="1"
       ry="1" />
    <g
       id="g4512"
       transform="translate(933.38095,-296.98485)">
      <rect
         ry="3.9719627"
         rx="3.9719627"
         y="485.79968"
         x="-711.07147"
         height="45.535717"
         width="45.535717"
         id="rect2985"
         style="fill:#cccccc;fill-opacity:1;stroke:none" />
      <g
         id="g4488">
        <rect
           style="fill:#666666;fill-opacity:1;stroke:#666666"
           id="rect3007"
           width="7.6785712"
           height="7.6785712"
           x="-677.05359"
           y="489.32651"
           rx="1"
           ry="1" />
        <rect
           style="fill:#666666;fill-opacity:1;stroke:#666666"
           id="rect3007-0"
           width="7.6785712"
           height="7.6785712"
           x="-677.05359"
           y="499.59433"
           rx="1"
           ry="1" />
        <rect
           style="fill:none;stroke:#666666"
           id="rect3007-2"
           width="7.6785712"
           height="7.6785712"
           x="-677.05359"
           y="509.86221"
           rx="1"
           ry="1" />
        <rect
           style="fill:#666666;fill-opacity:1;stroke:#666666"
           id="rect3007-0-9"
           width="7.6785712"
           height="7.6785712"
           x="-677.05359"
           y="520.13"
           rx="1"
           ry="1" />
      </g>
    </g>
    <path
       style="fill:none;stroke:#000000;stroke-width:1px;stroke-linecap:butt;stroke-linejoin:miter;stroke-opacity:1;marker-start:none;marker-end:url(#Arrow1Lend)"
       d="m 265.5238,213.77019 c 26.93758,-6.90629 51.84161,-4.86496 76.42858,-1.42857"
       id="path3820"
       inkscape:connector-curvature="0"
       sodipodi:nodetypes="cc" />
    <path
       style="fill:none;stroke:#000000;stroke-width:1;stroke-linecap:butt;stroke-linejoin:miter;stroke-miterlimit:4;stroke-opacity:1;stroke-dasharray:3, 1;stroke-dashoffset:0;marker-start:none;marker-end:url(#Arrow1Lend)"
       d="m 343.38095,218.7966 c -26.93758,6.90629 -51.84161,4.86496 -76.42858,1.42857"
       id="path3820-3"
       inkscape:connector-curvature="0"
       sodipodi:nodetypes="cc" />
    <rect
       style="fill:#666666;fill-opacity:1;stroke:#666666"
       id="rect3007-0-9-4"
       width="7.6785712"
       height="7.6785712"
       x="345.07736"
       y="212.07378"
       rx="1"
       ry="1" />
    <path
       style="font-size:medium;font-style:normal;font-variant:normal;font-weight:normal;font-stretch:normal;text-indent:0;text-align:start;text-decoration:none;line-height:normal;letter-spacing:normal;word-spacing:normal;text-transform:none;direction:ltr;block-progression:tb;writing-mode:lr-tb;text-anchor:start;baseline-shift:baseline;color:#000000;fill:#666666;fill-opacity:1;stroke:none;stroke-width:1;marker:none;visibility:visible;display:inline;overflow:visible;enable-background:accumulate;font-family:Sans;-inkscape-font-specification:Sans"
       d="m 226.78701,188.80923 c -0.9538,0 -4.47753,-0.12293 -4.47753,4.37424 l 0,36.79876 c 0,2.67639 1.38785,4.37425 4.47753,4.37425 l 0.0939,0 0,-0.97886 -0.0939,0 c -1.93592,0 -3.47557,-1.50414 -3.47557,-3.39539 l 0,-36.79876 c 0,-1.89126 1.53965,-3.39539 3.47557,-3.39539 l 0.0939,0 0,-0.97885 z"
       id="rect2985-8-4-2"
       inkscape:connector-curvature="0"
       sodipodi:nodetypes="ssssccssssccs" />
  </g>
</svg>
